<svg width="12" height="16" viewBox="0 0 7 14" fill="none" xmlns="http://www.w3.org/2000/svg">
<path d="M0.796852 7.19062H2.13719V12.9216C2.13719 13.0348 2.22546 13.1265 2.33441 13.1265H4.60701C4.71596 13.1265 4.80423 13.0348 4.80423 12.9216V7.21763H6.34508C6.44526 7.21763 6.52957 7.13955 6.54101 7.03619L6.77503 4.92633C6.78145 4.86828 6.76375 4.81014 6.72635 4.76659C6.68893 4.72301 6.63536 4.69805 6.57914 4.69805H4.80432V3.37547C4.80432 2.9768 5.011 2.77462 5.41871 2.77462C5.47682 2.77462 6.57914 2.77462 6.57914 2.77462C6.6881 2.77462 6.77636 2.68289 6.77636 2.56979V0.633103C6.77636 0.519947 6.6881 0.428271 6.57914 0.428271H4.97988C4.96861 0.4277 4.94355 0.426758 4.90663 0.426758C4.62915 0.426758 3.66462 0.483336 2.90271 1.21131C2.05852 2.01804 2.17588 2.98394 2.20392 3.15142V4.698H0.796828C0.687878 4.698 0.599609 4.78968 0.599609 4.90284V6.98576C0.599633 7.0989 0.687901 7.19062 0.796852 7.19062Z" fill="#192023"/>
</svg>
