<svg width="15" height="13" viewBox="0 0 12 11" fill="none" xmlns="http://www.w3.org/2000/svg">
<path d="M11.691 1.88399C11.2775 2.06985 10.8369 2.19304 10.3776 2.25286C10.8501 1.96375 11.2108 1.50943 11.3803 0.961836C10.9398 1.23101 10.4534 1.42113 9.93497 1.52724C9.51665 1.07079 8.92044 0.788086 8.27002 0.788086C7.00811 0.788086 5.99218 1.83771 5.99218 3.12446C5.99218 3.3096 6.00747 3.48762 6.04499 3.6571C4.15003 3.56239 2.47327 2.63169 1.34686 1.21392C1.15021 1.56355 1.03485 1.96375 1.03485 2.39456C1.03485 3.2035 1.44136 3.92057 2.0473 4.33572C1.6811 4.3286 1.32184 4.21965 1.01748 4.04804C1.01748 4.05516 1.01748 4.06442 1.01748 4.07367C1.01748 5.20875 1.80757 6.15156 2.84365 6.36874C2.65811 6.42073 2.4559 6.44565 2.24604 6.44565C2.10012 6.44565 1.9528 6.4371 1.81452 6.40577C2.10984 7.33078 2.94788 8.01083 3.94435 8.0329C3.16885 8.65456 2.1842 9.02912 1.11824 9.02912C0.931316 9.02912 0.752035 9.02057 0.572754 8.99707C1.58243 9.6643 2.77902 10.0453 4.06943 10.0453C8.26377 10.0453 10.5569 6.48481 10.5569 3.39861C10.5569 3.29536 10.5534 3.19567 10.5486 3.09669C11.0009 2.7677 11.381 2.35682 11.691 1.88399Z" fill="#192023"/>
</svg>
