<svg width="15" height="15" viewBox="0 0 12 12" fill="none" xmlns="http://www.w3.org/2000/svg">
<path d="M11.304 3.32916C11.298 2.87084 11.2132 2.41708 11.0533 1.98818C10.9148 1.6264 10.7031 1.29784 10.4318 1.02349C10.1606 0.749144 9.83571 0.535041 9.47801 0.394861C9.0594 0.235926 8.61716 0.149988 8.17011 0.140704C7.59454 0.114684 7.41206 0.107422 5.951 0.107422C4.48994 0.107422 4.30267 0.107422 3.73129 0.140704C3.28445 0.150056 2.84241 0.235994 2.42399 0.394861C2.06624 0.534943 1.74133 0.749012 1.47007 1.02337C1.1988 1.29773 0.98715 1.62634 0.848648 1.98818C0.691193 2.41125 0.606408 2.85843 0.597958 3.3104C0.572231 3.89314 0.564453 4.07771 0.564453 5.55545C0.564453 7.03319 0.564453 7.22199 0.597958 7.8005C0.606933 8.25314 0.691294 8.69973 0.848648 9.12393C0.987382 9.48565 1.19919 9.81413 1.47055 10.0884C1.7419 10.3626 2.06684 10.5766 2.42459 10.7166C2.84186 10.882 3.28398 10.9741 3.73188 10.9889C4.30805 11.015 4.49054 11.0228 5.9516 11.0228C7.41266 11.0228 7.59993 11.0228 8.17131 10.9889C8.61834 10.98 9.06061 10.8943 9.47921 10.7354C9.83681 10.5951 10.1616 10.3809 10.4328 10.1066C10.704 9.83224 10.9158 9.50376 11.0545 9.14208C11.2119 8.71848 11.2963 8.2719 11.3052 7.81865C11.331 7.23651 11.3387 7.05194 11.3387 5.5736C11.3375 4.09586 11.3375 3.90827 11.304 3.32916ZM5.94741 8.34996C4.41934 8.34996 3.18144 7.09793 3.18144 5.55242C3.18144 4.00691 4.41934 2.75488 5.94741 2.75488C6.68099 2.75488 7.38452 3.04962 7.90324 3.57426C8.42196 4.0989 8.71338 4.81047 8.71338 5.55242C8.71338 6.29437 8.42196 7.00594 7.90324 7.53058C7.38452 8.05522 6.68099 8.34996 5.94741 8.34996ZM8.82346 3.30374C8.73874 3.30382 8.65484 3.287 8.57655 3.25425C8.49826 3.22149 8.42713 3.17345 8.36722 3.11285C8.30732 3.05226 8.25981 2.98032 8.22743 2.90114C8.19504 2.82196 8.17841 2.7371 8.17849 2.65141C8.17849 2.56578 8.19517 2.48099 8.22756 2.40189C8.25996 2.32278 8.30745 2.2509 8.36731 2.19035C8.42718 2.1298 8.49824 2.08178 8.57646 2.04901C8.65467 2.01624 8.73851 1.99937 8.82317 1.99937C8.90783 1.99937 8.99166 2.01624 9.06987 2.04901C9.14809 2.08178 9.21916 2.1298 9.27902 2.19035C9.33888 2.2509 9.38637 2.32278 9.41877 2.40189C9.45116 2.48099 9.46784 2.56578 9.46784 2.65141C9.46784 3.01207 9.17946 3.30374 8.82346 3.30374Z" fill="#192023"/>
</svg>
