<svg width="19" height="19" viewBox="0 0 19 19" fill="none" xmlns="http://www.w3.org/2000/svg">
<circle cx="9.69835" cy="9.5283" r="8.84776" fill="#586A72"/>
<path d="M11.2642 6.97944C11.3805 6.86686 11.5352 6.80463 11.6958 6.80587C11.8563 6.8071 12.0101 6.87171 12.1247 6.98606C12.2393 7.10041 12.3058 7.25555 12.31 7.41876C12.3142 7.58196 12.256 7.74046 12.1475 7.86081L8.85383 12.0494C8.7972 12.1114 8.72884 12.1612 8.65285 12.1958C8.57687 12.2303 8.49481 12.2489 8.41158 12.2505C8.32836 12.2521 8.24568 12.2366 8.16848 12.2049C8.09129 12.1732 8.02117 12.1261 7.96232 12.0662L5.7781 9.84515C5.71728 9.78751 5.66849 9.71801 5.63465 9.64079C5.60081 9.56356 5.58262 9.4802 5.58115 9.39567C5.57968 9.31114 5.59498 9.22718 5.62611 9.14879C5.65725 9.0704 5.7036 8.99919 5.76239 8.9394C5.82118 8.87962 5.89121 8.8325 5.96829 8.80083C6.04538 8.76917 6.12796 8.75362 6.21108 8.75511C6.29421 8.7566 6.37619 8.77511 6.45214 8.80951C6.52808 8.84392 6.59643 8.89353 6.65311 8.95539L8.38166 10.7122L11.2485 6.9979C11.2537 6.99144 11.2592 6.98528 11.265 6.97944H11.2642Z" fill="#5ABA4A"/>
</svg>
