<svg width="14" height="15" viewBox="0 0 14 15" fill="none" xmlns="http://www.w3.org/2000/svg">
<path d="M13.6165 5.62172C13.5742 5.49572 13.4964 5.385 13.3926 5.30324C13.2888 5.22148 13.1636 5.17225 13.0324 5.16164L9.19615 4.85333L7.53606 1.13659C7.48319 1.01688 7.3972 0.915202 7.28846 0.843832C7.17972 0.772462 7.05288 0.734447 6.92325 0.734375C6.79362 0.734303 6.66674 0.772177 6.55792 0.843427C6.44911 0.914676 6.363 1.01626 6.31 1.13591L4.64992 4.85333L0.813622 5.16164C0.684728 5.17196 0.561505 5.21963 0.458695 5.29893C0.355885 5.37824 0.277841 5.48582 0.233899 5.60881C0.189958 5.7318 0.18198 5.86499 0.21092 5.99244C0.239861 6.1199 0.304493 6.23622 0.397086 6.3275L3.23208 9.12271L2.22944 13.5139C2.19899 13.6468 2.20875 13.7859 2.25744 13.9132C2.30614 14.0404 2.39152 14.1499 2.50251 14.2275C2.6135 14.305 2.74497 14.3471 2.87987 14.3481C3.01477 14.3491 3.14686 14.3091 3.259 14.2333L6.92303 11.7627L10.5871 14.2333C10.7017 14.3103 10.8369 14.3499 10.9744 14.3469C11.112 14.3438 11.2453 14.2982 11.3565 14.2162C11.4676 14.1343 11.5513 14.0198 11.5963 13.8883C11.6412 13.7568 11.6453 13.6145 11.6079 13.4806L10.3771 9.12475L13.4295 6.34656C13.6293 6.16416 13.7027 5.87967 13.6165 5.62172Z" fill="#EEA404"/>
</svg>
